<svg width="20" height="20" viewBox="0 0 20 20" fill="none" xmlns="http://www.w3.org/2000/svg">
<path fill-rule="evenodd" clip-rule="evenodd" d="M15.2128 13.7234C17.766 10.4255 17.5532 5.53192 14.4681 2.44681C11.1702 -0.851064 5.74468 -0.851064 2.44681 2.44681C-0.851064 5.74468 -0.851064 11.1702 2.44681 14.4681C5.53192 17.5532 10.3191 17.766 13.7234 15.2128L18.1915 19.6809C18.617 20.1064 19.2553 20.1064 19.6809 19.6809C20.1064 19.2553 20.1064 18.617 19.6809 18.1915L15.2128 13.7234ZM12.9787 3.93617C15.4255 6.38298 15.4255 10.4255 12.9787 12.9787C10.5319 15.4255 6.48936 15.4255 3.93617 12.9787C1.48936 10.4255 1.48936 6.48936 3.93617 3.93617C6.48936 1.48936 10.4255 1.48936 12.9787 3.93617Z" fill="#757575"/>
</svg>
